<svg width="83" height="13" viewBox="0 0 83 13" fill="none" xmlns="http://www.w3.org/2000/svg">
<path d="M0.0640001 2.004H7.26V3.516H1.814V6.134H6.854V7.562H1.814V10.488H7.358V12H0.0640001V2.004ZM8.70036 4.762H11.3184L12.6624 9.928H12.6904L13.9784 4.762H16.5824V12H14.9724V6.554H14.9584L13.4744 12H11.8084L10.3244 6.554H10.2964V12H8.70036V4.762ZM21.6287 12.196C21.05 12.196 20.532 12.1027 20.0747 11.916C19.6267 11.72 19.244 11.454 18.9267 11.118C18.6187 10.782 18.3807 10.3807 18.2127 9.914C18.054 9.44733 17.9747 8.934 17.9747 8.374C17.9747 7.82333 18.054 7.31467 18.2127 6.848C18.3807 6.38133 18.6187 5.98 18.9267 5.644C19.244 5.308 19.6267 5.04667 20.0747 4.86C20.532 4.664 21.05 4.566 21.6287 4.566C22.2074 4.566 22.7207 4.664 23.1687 4.86C23.626 5.04667 24.0087 5.308 24.3167 5.644C24.634 5.98 24.872 6.38133 25.0307 6.848C25.1987 7.31467 25.2827 7.82333 25.2827 8.374C25.2827 8.934 25.1987 9.44733 25.0307 9.914C24.872 10.3807 24.634 10.782 24.3167 11.118C24.0087 11.454 23.626 11.72 23.1687 11.916C22.7207 12.1027 22.2074 12.196 21.6287 12.196ZM21.6287 10.936C21.9834 10.936 22.2914 10.8613 22.5527 10.712C22.814 10.5627 23.0287 10.3667 23.1967 10.124C23.3647 9.88133 23.486 9.61067 23.5607 9.312C23.6447 9.004 23.6867 8.69133 23.6867 8.374C23.6867 8.066 23.6447 7.758 23.5607 7.45C23.486 7.142 23.3647 6.87133 23.1967 6.638C23.0287 6.39533 22.814 6.19933 22.5527 6.05C22.2914 5.90067 21.9834 5.826 21.6287 5.826C21.274 5.826 20.966 5.90067 20.7047 6.05C20.4434 6.19933 20.2287 6.39533 20.0607 6.638C19.8927 6.87133 19.7667 7.142 19.6827 7.45C19.608 7.758 19.5707 8.066 19.5707 8.374C19.5707 8.69133 19.608 9.004 19.6827 9.312C19.7667 9.61067 19.8927 9.88133 20.0607 10.124C20.2287 10.3667 20.4434 10.5627 20.7047 10.712C20.966 10.8613 21.274 10.936 21.6287 10.936ZM32.3635 5.952H29.9695V12H28.3735V5.952H25.8815V4.762H32.3635V5.952ZM38.3198 7.744C38.3011 7.492 38.2451 7.24933 38.1518 7.016C38.0678 6.78267 37.9464 6.582 37.7878 6.414C37.6384 6.23667 37.4518 6.09667 37.2278 5.994C37.0131 5.882 36.7704 5.826 36.4998 5.826C36.2198 5.826 35.9631 5.87733 35.7298 5.98C35.5058 6.07333 35.3098 6.20867 35.1418 6.386C34.9831 6.554 34.8524 6.75467 34.7498 6.988C34.6564 7.22133 34.6051 7.47333 34.5958 7.744H38.3198ZM34.5958 8.794C34.5958 9.074 34.6331 9.34467 34.7078 9.606C34.7918 9.86733 34.9131 10.096 35.0718 10.292C35.2304 10.488 35.4311 10.6467 35.6738 10.768C35.9164 10.88 36.2058 10.936 36.5418 10.936C37.0084 10.936 37.3818 10.838 37.6618 10.642C37.9511 10.4367 38.1658 10.1333 38.3058 9.732H39.8178C39.7338 10.124 39.5891 10.474 39.3838 10.782C39.1784 11.09 38.9311 11.3513 38.6418 11.566C38.3524 11.7713 38.0258 11.9253 37.6618 12.028C37.3071 12.14 36.9338 12.196 36.5418 12.196C35.9724 12.196 35.4684 12.1027 35.0298 11.916C34.5911 11.7293 34.2178 11.468 33.9098 11.132C33.6111 10.796 33.3824 10.3947 33.2238 9.928C33.0744 9.46133 32.9998 8.948 32.9998 8.388C32.9998 7.87467 33.0791 7.38933 33.2378 6.932C33.4058 6.46533 33.6391 6.05933 33.9378 5.714C34.2458 5.35933 34.6144 5.07933 35.0438 4.874C35.4731 4.66867 35.9584 4.566 36.4998 4.566C37.0691 4.566 37.5778 4.68733 38.0258 4.93C38.4831 5.16333 38.8611 5.476 39.1598 5.868C39.4584 6.26 39.6731 6.71267 39.8038 7.226C39.9438 7.73 39.9811 8.25267 39.9158 8.794H34.5958ZM45.2495 2.004H52.1515V3.516H46.9995V6.134H51.5215V7.562H46.9995V12H45.2495V2.004ZM53.3664 2.004H54.9624V3.516H53.3664V2.004ZM53.3664 4.762H54.9624V12H53.3664V4.762ZM56.7433 2.004H58.3393V12H56.7433V2.004ZM60.1203 4.762H62.7383L64.0823 9.928H64.1103L65.3983 4.762H68.0023V12H66.3923V6.554H66.3783L64.8943 12H63.2283L61.7443 6.554H61.7163V12H60.1203V4.762ZM70.9346 9.676C70.9813 10.1427 71.1586 10.4693 71.4666 10.656C71.7746 10.8427 72.1433 10.936 72.5726 10.936C72.722 10.936 72.89 10.9267 73.0766 10.908C73.2726 10.88 73.4546 10.8333 73.6226 10.768C73.7906 10.7027 73.926 10.6093 74.0286 10.488C74.1406 10.3573 74.192 10.1893 74.1826 9.984C74.1733 9.77867 74.0986 9.61067 73.9586 9.48C73.8186 9.34933 73.6366 9.24667 73.4126 9.172C73.198 9.088 72.9506 9.018 72.6706 8.962C72.3906 8.906 72.106 8.84533 71.8166 8.78C71.518 8.71467 71.2286 8.63533 70.9486 8.542C70.678 8.44867 70.4306 8.32267 70.2066 8.164C69.992 8.00533 69.8193 7.80467 69.6886 7.562C69.558 7.31 69.4926 7.002 69.4926 6.638C69.4926 6.246 69.586 5.91933 69.7726 5.658C69.9686 5.38733 70.2113 5.17267 70.5006 5.014C70.7993 4.846 71.126 4.72933 71.4806 4.664C71.8446 4.59867 72.19 4.566 72.5166 4.566C72.89 4.566 73.2446 4.608 73.5806 4.692C73.926 4.76667 74.234 4.89267 74.5046 5.07C74.7846 5.24733 75.0133 5.48067 75.1906 5.77C75.3773 6.05 75.494 6.39067 75.5406 6.792H73.8746C73.8 6.40933 73.6226 6.15267 73.3426 6.022C73.072 5.89133 72.7593 5.826 72.4046 5.826C72.2926 5.826 72.1573 5.83533 71.9986 5.854C71.8493 5.87267 71.7046 5.91 71.5646 5.966C71.434 6.01267 71.322 6.08733 71.2286 6.19C71.1353 6.28333 71.0886 6.40933 71.0886 6.568C71.0886 6.764 71.154 6.92267 71.2846 7.044C71.4246 7.16533 71.602 7.268 71.8166 7.352C72.0406 7.42667 72.2926 7.492 72.5726 7.548C72.8526 7.604 73.142 7.66467 73.4406 7.73C73.73 7.79533 74.0146 7.87467 74.2946 7.968C74.5746 8.06133 74.822 8.18733 75.0366 8.346C75.2606 8.50467 75.438 8.70533 75.5686 8.948C75.7086 9.19067 75.7786 9.48933 75.7786 9.844C75.7786 10.2733 75.6806 10.6373 75.4846 10.936C75.2886 11.2347 75.032 11.4773 74.7146 11.664C74.4066 11.8507 74.0613 11.986 73.6786 12.07C73.296 12.154 72.918 12.196 72.5446 12.196C72.0873 12.196 71.6626 12.1447 71.2706 12.042C70.888 11.9393 70.552 11.7853 70.2626 11.58C69.9826 11.3653 69.7586 11.104 69.5906 10.796C69.432 10.4787 69.348 10.1053 69.3386 9.676H70.9346ZM81.9212 4.0012C81.9212 3.6204 81.8596 3.2704 81.7364 2.9512C81.6132 2.632 81.4424 2.3576 81.224 2.128C81.0056 1.8984 80.7508 1.722 80.4596 1.5988C80.1684 1.47 79.8548 1.4056 79.5188 1.4056C79.1772 1.4056 78.858 1.47 78.5612 1.5988C78.27 1.722 78.0152 1.8984 77.7968 2.128C77.5784 2.3576 77.4076 2.632 77.2844 2.9512C77.1612 3.2704 77.0996 3.6204 77.0996 4.0012C77.0996 4.3596 77.1556 4.6956 77.2676 5.0092C77.3796 5.3228 77.5392 5.5972 77.7464 5.8324C77.9592 6.0676 78.214 6.2552 78.5108 6.3952C78.8076 6.5296 79.1436 6.5968 79.5188 6.5968C79.8548 6.5968 80.1684 6.5352 80.4596 6.412C80.7508 6.2832 81.0056 6.104 81.224 5.8744C81.4424 5.6448 81.6132 5.3732 81.7364 5.0596C81.8596 4.7404 81.9212 4.3876 81.9212 4.0012ZM82.5932 4.0012C82.5932 4.4716 82.5092 4.9 82.3412 5.2864C82.1788 5.6728 81.9548 6.0032 81.6692 6.2776C81.3892 6.552 81.0616 6.7648 80.6864 6.916C80.3168 7.0672 79.9276 7.1428 79.5188 7.1428C79.0652 7.1428 78.648 7.0644 78.2672 6.9076C77.892 6.7452 77.5672 6.524 77.2928 6.244C77.024 5.964 76.8112 5.6336 76.6544 5.2528C76.5032 4.8664 76.4276 4.4492 76.4276 4.0012C76.4276 3.5308 76.5088 3.1024 76.6712 2.716C76.8392 2.3296 77.0632 1.9992 77.3432 1.7248C77.6288 1.4504 77.9592 1.2376 78.3344 1.0864C78.7096 0.935199 79.1044 0.8596 79.5188 0.8596C79.9276 0.8596 80.3168 0.935199 80.6864 1.0864C81.0616 1.2376 81.3892 1.4504 81.6692 1.7248C81.9548 1.9992 82.1788 2.3296 82.3412 2.716C82.5092 3.1024 82.5932 3.5308 82.5932 4.0012ZM79.5356 3.8248C79.642 3.8248 79.7428 3.822 79.838 3.8164C79.9388 3.8052 80.0256 3.78 80.0984 3.7408C80.1712 3.7016 80.23 3.6484 80.2748 3.5812C80.3196 3.5084 80.342 3.4076 80.342 3.2788C80.342 3.1724 80.3168 3.0884 80.2664 3.0268C80.2216 2.9652 80.1628 2.9176 80.09 2.884C80.0172 2.8504 79.936 2.8308 79.8464 2.8252C79.7568 2.814 79.67 2.8084 79.586 2.8084H78.8972V3.8248H79.5356ZM78.8972 5.7988H78.326V2.3212H79.6448C80.0648 2.3212 80.3812 2.3996 80.594 2.5564C80.8068 2.7132 80.9132 2.968 80.9132 3.3208C80.9132 3.6344 80.8264 3.864 80.6528 4.0096C80.4792 4.1552 80.2636 4.242 80.006 4.27L80.9804 5.7988H80.3336L79.4348 4.312H78.8972V5.7988Z" fill="white"/>
</svg>
